<svg width="215" height="24" viewBox="0 0 215 24" fill="none" xmlns="http://www.w3.org/2000/svg">
<path d="M47.3638 20.6534C50.5278 21.3227 58.2939 21.1315 58.3898 16.0638C58.3898 14.0558 55.8011 12.1434 53.3082 11.5697C50.2401 10.9004 48.3226 10.9004 45.1586 11.5697C43.241 12.3347 42.6657 10.4223 44.3915 9.84862C47.6514 8.60559 60.595 8.41435 61.1702 16.0638C60.595 23.7132 49.3772 23.1395 46.8844 22.6614C45.9256 22.4701 45.1586 21.992 45.1586 20.749V14.3426C45.1586 12.8128 47.3638 12.8128 47.3638 14.3426V20.6534Z" fill="#868585"/>
<path d="M71.5251 11.6654C69.0323 11.6654 64.8136 19.3148 63.5672 21.992C62.8002 23.6175 60.4991 22.4701 61.2661 20.8446C62.6084 17.8805 67.5941 8.98806 71.5251 9.08368C75.4561 8.98806 80.4418 17.8805 81.7841 20.8446C82.5511 22.4701 80.1541 23.6175 79.483 21.992C78.2366 19.3148 74.0179 11.6654 71.5251 11.6654Z" fill="#868585"/>
<path d="M89.0708 20.2709C91.5636 20.2709 95.7822 12.6215 97.0286 9.94422C97.7957 8.31872 100.097 9.46614 99.3297 11.0916C98.0833 14.0558 93.0018 22.9482 89.0708 22.8526C85.1398 22.9482 80.1541 14.0558 78.8118 11.0916C78.0448 9.46614 80.4417 8.31872 81.1129 9.94422C82.3593 12.6215 86.5779 20.2709 89.0708 20.2709Z" fill="#868585"/>
<path d="M103.644 10.4223V21.5139C103.644 23.1394 101.151 23.1394 101.151 21.4183V10.4223C101.056 8.70119 103.644 8.70119 103.644 10.4223Z" fill="#868585"/>
<path d="M115.629 20.2709C118.122 20.2709 122.34 12.6215 123.587 9.94422C124.354 8.31872 126.655 9.46614 125.888 11.0916C124.546 14.0558 119.56 22.9482 115.629 22.8526C111.698 22.9482 106.712 14.0558 105.37 11.0916C104.603 9.46614 107 8.31872 107.671 9.94422C108.918 12.6215 113.136 20.2709 115.629 20.2709Z" fill="#868585"/>
<path d="M134.996 17.1155C135.763 18.6454 137.873 19.8884 139.886 20.3665C142.954 21.0359 144.872 21.0359 148.036 20.3665C149.858 19.7928 150.529 21.6096 148.803 22.1833C145.351 23.3307 132.695 23.7131 131.928 16.0637C132.312 8.7012 142.475 8.89243 146.31 9.37052C148.228 9.65737 147.844 11.5697 145.831 11.1873C143.242 10.8048 136.243 10.4223 134.901 15.1076H142.091C143.242 15.1076 143.242 17.2112 142.091 17.2112L134.996 17.1155Z" fill="#868585"/>
<path d="M175.073 20.6534C178.237 21.3227 186.004 21.1315 186.099 16.0638C186.099 14.0558 183.511 12.1434 181.018 11.5697C177.95 10.9004 176.032 10.9004 172.868 11.5697C170.951 12.3347 170.375 10.4223 172.101 9.84862C175.457 8.60559 188.305 8.41435 188.88 16.0638C188.305 23.7132 177.087 23.1395 174.594 22.6614C173.539 22.4701 172.868 21.992 172.868 20.749V14.3426C172.868 12.8128 175.073 12.8128 175.073 14.3426V20.6534Z" fill="#868585"/>
<path d="M199.235 11.6654C196.742 11.6654 192.523 19.3148 191.277 21.992C190.51 23.6175 188.209 22.4701 188.976 20.8446C190.318 17.8805 195.304 8.98806 199.235 9.08368C203.166 8.98806 208.151 17.8805 209.494 20.8446C210.261 22.4701 207.864 23.6175 207.193 21.992C205.85 19.3148 201.728 11.6654 199.235 11.6654Z" fill="#868585"/>
<path d="M130.202 10.4223V21.5139C130.202 23.1394 127.71 23.1394 127.71 21.4183V10.4223C127.614 8.70119 130.202 8.70119 130.202 10.4223Z" fill="#868585"/>
<path d="M160.404 18.263C158.87 15.3944 157.144 11.6654 155.994 11.5697C153.117 11.5697 154.364 17.3068 154.364 21.7052C154.364 23.2351 151.871 23.2351 151.871 21.514C151.871 15.8725 150.625 9.08368 156.09 9.08368C157.72 9.08368 159.158 11.4741 160.5 13.6733C162.034 16.5418 163.952 20.2709 165.102 20.3665C167.978 20.3665 166.636 14.8207 166.636 10.3267C166.636 8.79683 169.129 8.79683 169.129 10.5179C169.129 16.1594 170.375 22.8526 165.006 22.8526C163.376 22.8526 161.746 20.4622 160.404 18.263Z" fill="#868585"/>
<path fill-rule="evenodd" clip-rule="evenodd" d="M15.2446 14.7251C15.1487 15.0119 14.957 16.1594 13.9982 16.1594V15.2032C13.9982 15.0119 14.19 14.7251 14.5735 14.7251H15.2446ZM14.2858 14.3426H16.6828C17.0663 14.3426 17.3539 14.6295 17.3539 15.0119V16.6374C17.3539 17.0199 17.0663 17.3068 16.6828 17.3068H14.2858C13.9023 17.3068 13.6147 17.0199 13.6147 16.6374V15.0119C13.6147 14.7251 13.9023 14.3426 14.2858 14.3426ZM15.724 14.7251C15.8199 15.0119 16.0116 16.1594 16.9704 16.1594V15.2032C16.9704 14.9163 16.7787 14.7251 16.3952 14.7251H15.724Z" fill="#868585"/>
<path fill-rule="evenodd" clip-rule="evenodd" d="M22.3396 18.6454C22.3396 18.4542 22.5314 18.2629 22.7231 18.2629C22.9149 18.2629 23.1066 18.4542 23.1066 18.6454C23.1066 18.8366 22.9149 19.0279 22.7231 19.0279C22.5314 19.0279 22.3396 18.8366 22.3396 18.6454Z" fill="#868585"/>
<path fill-rule="evenodd" clip-rule="evenodd" d="M20.9014 23.1395C22.819 23.1395 24.2572 22.757 24.2572 22.2789C24.2572 21.8008 23.0107 21.4183 20.9014 21.4183C18.7921 21.4183 17.5457 21.8008 17.5457 22.2789C17.5457 22.757 18.9839 23.1395 20.9014 23.1395ZM20.9014 14.0558C22.9149 14.0558 24.0654 17.5936 22.819 21.2271C22.819 21.2271 22.052 21.0359 20.9014 21.0359C19.7509 21.0359 18.9839 21.2271 18.9839 21.2271C17.7374 17.5936 18.888 14.0558 20.9014 14.0558ZM20.9014 4.39841C23.2984 4.39841 29.1469 8.1275 30.9686 10.0398C32.215 11.3785 31.448 12.3347 29.5305 12.239C26.3665 12.0478 23.7778 11.8566 20.9973 11.761C18.2168 11.761 15.5322 11.9522 12.4641 12.239C10.5466 12.3347 9.77955 11.3785 11.026 10.0398C12.6559 8.1275 18.5045 4.39841 20.9014 4.39841ZM26.4624 5.92829C26.1747 5.16335 26.1747 4.97212 26.8459 4.97212H28.284C29.1469 4.97212 28.7634 5.4502 28.5717 6.31076C28.4758 6.88447 28.4758 6.98009 28.4758 7.36256C27.6129 6.78885 27.2294 6.40638 26.4624 5.92829ZM20.9014 12.5259C18.6962 12.5259 16.6828 12.7171 13.4229 12.9084C13.4229 13.6733 13.327 15.2032 12.0806 17.0199C10.4507 19.506 12.4641 23.4263 17.3539 22.5657C17.3539 22.5657 17.3539 22.5657 17.258 22.4701C15.724 21.7052 15.4364 20.749 16.491 20.2709C17.258 19.9841 18.3127 19.6016 18.3127 19.6016C17.7374 17.0199 18.6003 13.4821 20.9973 13.4821C23.3943 13.4821 24.2572 17.0199 23.6819 19.6016C23.6819 19.6016 24.7365 19.8885 25.5036 20.2709C26.5582 20.6534 26.2706 21.7052 24.7365 22.4701C24.6407 22.5657 24.6407 22.5657 24.6407 22.5657C29.5305 23.4263 31.448 19.506 29.914 17.0199C28.6675 15.2032 28.6675 13.6733 28.5717 12.9084C25.1201 12.7171 23.2025 12.5259 20.9014 12.5259ZM20.9014 3.82471C21.8602 3.82471 23.7778 4.58965 25.8871 5.73706C25.8871 5.64144 25.8871 5.54582 25.7912 5.54582C25.6953 5.06774 25.7912 4.49403 26.5582 4.49403H28.3799C29.5305 4.49403 29.3387 5.06773 29.1469 5.92829C29.0511 6.40638 28.9552 7.0757 28.8593 7.64941C28.8593 7.64941 30.2975 8.7012 31.1604 9.46614C33.7491 11.6653 32.0233 13.0996 29.6263 12.9084C29.3387 12.9084 29.1469 12.9084 28.8593 12.9084C28.8593 13.6733 29.0511 15.012 30.2016 16.4462C33.0779 19.8885 29.2428 24.1912 23.8736 22.9482C23.0107 23.2351 21.5726 23.3307 20.8055 23.3307C20.0385 23.3307 18.6003 23.2351 17.7374 22.9482C12.3683 24.1912 8.53314 19.8885 11.4095 16.4462C12.56 14.9163 12.7518 13.5777 12.7518 12.9084C12.4641 12.9084 12.2724 12.9084 11.9848 12.9084C9.49192 13.004 7.86199 11.5697 10.4507 9.37052C11.4095 8.7012 12.9435 7.64941 12.9435 7.64941C13.8064 6.98009 15.6281 5.92829 16.0116 5.73706C18.121 4.49403 19.9426 3.82471 20.9014 3.82471Z" fill="#868585"/>
<path fill-rule="evenodd" clip-rule="evenodd" d="M26.0788 14.7251C25.983 15.0119 25.7912 16.1594 24.8324 16.1594V15.2032C24.8324 15.0119 25.0242 14.7251 25.4077 14.7251H26.0788ZM25.1201 14.3426H27.517C27.9005 14.3426 28.1882 14.6295 28.1882 15.0119V16.6374C28.1882 17.0199 27.9005 17.3068 27.517 17.3068H25.1201C24.7365 17.3068 24.4489 17.0199 24.4489 16.6374V15.0119C24.4489 14.7251 24.7365 14.3426 25.1201 14.3426ZM26.5582 14.7251C26.6541 15.0119 26.8459 16.1594 27.8046 16.1594V15.2032C27.8046 14.9163 27.6129 14.7251 27.2294 14.7251H26.5582Z" fill="#868585"/>
<path d="M0.671147 22.9482L1.43817 23.2351L0.671147 23.5219V23.7131L1.72581 23.3307V23.1394L0.671147 22.757V22.9482ZM0.671147 22.5657H1.72581V22.3745H0.671147V22.5657ZM1.62993 21.2271H1.15054V21.7052H1.34229V21.4183H1.43817C1.43817 21.4183 1.43817 21.5139 1.53405 21.5139V21.6096C1.53405 21.7052 1.53405 21.8008 1.43817 21.8008C1.43817 21.992 1.34229 21.992 1.24642 21.992C1.15054 21.992 1.05466 21.992 0.958781 21.8964C0.862903 21.8008 0.862903 21.8008 0.862903 21.7052C0.862903 21.6096 0.862903 21.6096 0.862903 21.5139L0.958781 21.4183V21.2271C0.862903 21.2271 0.767025 21.3227 0.767025 21.3227C0.671147 21.4183 0.671147 21.5139 0.671147 21.6096C0.671147 21.7052 0.671147 21.8008 0.767025 21.8964C0.767025 21.992 0.862903 22.0876 0.958781 22.0876C1.05466 22.0876 1.15054 22.1833 1.24642 22.1833C1.34229 22.1833 1.43817 22.1833 1.53405 22.0876C1.62993 22.0876 1.72581 21.992 1.72581 21.8964C1.72581 21.8008 1.82168 21.7052 1.82168 21.6096C1.82168 21.5139 1.82168 21.4183 1.82168 21.3227C1.72581 21.3227 1.62993 21.2271 1.62993 21.2271ZM0.671147 21.0359H1.72581V20.8446H0.671147V21.0359ZM0.671147 20.3665V20.5578H1.72581V19.7928H1.53405V20.3665H0.671147ZM0.671147 19.4104L1.72581 19.7928V19.6016L1.43817 19.506V19.1235L1.72581 19.0279V18.8367L0.671147 19.1235V19.4104ZM1.34229 19.1235V19.4104L0.958781 19.3147L1.34229 19.1235ZM1.72581 18.2629C1.72581 18.1673 1.72581 18.1673 1.72581 18.0717C1.72581 17.9761 1.62993 17.9761 1.62993 17.8805C1.62993 17.7849 1.53405 17.7849 1.43817 17.7849C1.34229 17.7849 1.34229 17.7849 1.24642 17.7849C1.15054 17.7849 1.05466 17.7849 0.958781 17.7849C0.862903 17.7849 0.862903 17.8805 0.767025 17.8805C0.767025 17.8805 0.671147 17.9761 0.671147 18.0717C0.671147 18.0717 0.671147 18.1673 0.671147 18.2629V18.6454H1.72581V18.2629ZM1.53405 18.4542H0.862903V18.3586C0.862903 18.2629 0.862903 18.1673 0.862903 18.1673C0.862903 18.1673 0.862903 18.0717 0.958781 18.0717C0.958781 18.0717 1.05466 18.0717 1.05466 17.9761C1.05466 17.9761 1.15054 17.9761 1.24642 17.9761C1.34229 17.9761 1.43817 17.9761 1.43817 17.9761C1.43817 17.9761 1.53405 17.9761 1.53405 18.0717V18.1673V18.2629V18.4542ZM1.24642 16.5418C1.05466 16.5418 0.958781 16.5418 0.862903 16.6374C0.767025 16.7331 0.671147 16.8287 0.671147 17.0199C0.671147 17.1155 0.671147 17.2112 0.671147 17.2112C0.671147 17.3068 0.767025 17.3068 0.767025 17.3068C0.767025 17.3068 0.862903 17.4024 0.958781 17.4024C1.05466 17.4024 1.15054 17.498 1.24642 17.498C1.43817 17.498 1.53405 17.498 1.62993 17.4024C1.72581 17.3068 1.82168 17.2112 1.82168 17.0199C1.82168 16.8287 1.82168 16.7331 1.62993 16.6374C1.53405 16.6374 1.43817 16.5418 1.24642 16.5418ZM1.53405 17.3068C1.43817 17.4024 1.34229 17.4024 1.24642 17.4024C1.15054 17.4024 1.05466 17.4024 0.958781 17.3068C0.862903 17.2112 0.862903 17.2112 0.862903 17.1155C0.862903 17.0199 0.862903 16.9243 0.958781 16.9243C1.05466 16.8287 1.15054 16.8287 1.24642 16.8287C1.34229 16.8287 1.43817 16.8287 1.53405 16.9243C1.62993 17.0199 1.62993 17.0199 1.62993 17.1155C1.62993 17.2112 1.53405 17.2112 1.53405 17.3068ZM0 24H0.191756V16.1594H0V24ZM2.10932 10.5179C2.01344 10.5179 2.01344 10.5179 2.10932 10.5179C2.01344 10.5179 1.91756 10.4223 1.91756 10.4223H1.82168C1.72581 10.4223 1.72581 10.4223 1.62993 10.4223C1.62993 10.4223 1.53405 10.4223 1.53405 10.5179V10.6135V10.7092V10.9004H2.2052V10.6135C2.10932 10.7092 2.10932 10.7092 2.10932 10.5179C2.10932 10.6135 2.10932 10.6135 2.10932 10.5179ZM2.01344 10.9004H1.53405V10.8048C1.53405 10.7092 1.53405 10.7092 1.53405 10.7092C1.53405 10.7092 1.53405 10.6135 1.62993 10.6135C1.62993 10.6135 1.72581 10.6135 1.82168 10.6135C1.91756 10.6135 1.91756 10.6135 1.91756 10.6135C1.91756 10.6135 2.01344 10.6135 2.01344 10.7092C2.01344 10.7092 2.01344 10.7092 2.01344 10.8048V10.9004ZM2.01344 10.2311H1.82168V9.84861H1.72581V10.2311H1.53405V9.84861H1.43817V10.3267L2.01344 10.2311L2.10932 9.84861H2.01344V10.2311ZM1.91756 8.89243C1.91756 8.98805 2.01344 8.98805 2.01344 9.08366V9.17928V9.2749L1.91756 9.37052C1.91756 9.37052 1.82168 9.37052 1.72581 9.37052H1.62993C1.62993 9.37052 1.53405 9.37052 1.53405 9.2749V9.17928V9.08366L1.62993 8.98805V8.89243C1.53405 8.89243 1.53405 8.98805 1.43817 8.98805C1.43817 8.98805 1.34229 9.08367 1.34229 9.17928C1.34229 9.2749 1.34229 9.2749 1.34229 9.37052C1.34229 9.46614 1.43817 9.46614 1.43817 9.46614C1.53405 9.46614 1.53405 9.46614 1.62993 9.46614C1.72581 9.46614 1.72581 9.46614 1.82168 9.46614C1.91756 9.46614 1.91756 9.37052 1.91756 9.37052C1.91756 9.37052 1.91756 9.2749 1.91756 9.17928C1.91756 9.08367 1.91756 9.08366 1.82168 8.98805C2.01344 8.89243 2.01344 8.89243 1.91756 8.89243ZM1.91756 8.12749C1.82168 8.12749 1.82168 8.12749 1.72581 8.12749C1.62993 8.12749 1.62993 8.12749 1.53405 8.12749C1.43817 8.12749 1.43817 8.22311 1.43817 8.22311C1.43817 8.31873 1.43817 8.31872 1.43817 8.41434C1.43817 8.50996 1.43817 8.60558 1.53405 8.60558C1.62993 8.70119 1.72581 8.7012 1.82168 8.7012C1.91756 8.7012 1.91756 8.7012 2.01344 8.7012C2.10932 8.7012 2.10932 8.60558 2.10932 8.60558C2.10932 8.50996 2.10932 8.50996 2.10932 8.41434C2.10932 8.31872 2.10932 8.31873 2.10932 8.22311C2.01344 8.22311 2.01344 8.22311 1.91756 8.12749ZM2.01344 8.60558C2.01344 8.60558 1.91756 8.7012 1.82168 8.7012C1.72581 8.7012 1.62993 8.70119 1.62993 8.60558C1.62993 8.60558 1.53405 8.50996 1.53405 8.41434V8.31872L1.62993 8.22311H1.72581C1.82168 8.22311 1.91756 8.22311 1.91756 8.31872C1.91756 8.31872 2.01344 8.41434 2.01344 8.50996V8.60558ZM2.10932 7.55378L2.01344 7.93625H1.43817V8.03187H2.10932V7.55378ZM1.91756 6.88446C1.82168 6.88446 1.82168 6.88446 1.72581 6.88446C1.62993 6.88446 1.62993 6.88446 1.53405 6.88446C1.43817 6.88446 1.43817 6.98008 1.43817 6.98008C1.43817 7.0757 1.43817 7.0757 1.43817 7.17131C1.43817 7.26693 1.43817 7.36255 1.53405 7.36255C1.62993 7.45817 1.72581 7.45817 1.82168 7.45817C1.91756 7.45817 1.91756 7.45817 2.01344 7.45817C2.10932 7.45817 2.10932 7.36255 2.10932 7.36255C2.10932 7.26693 2.10932 7.26693 2.10932 7.17131C2.10932 7.0757 2.10932 7.0757 2.10932 6.98008C2.01344 6.98008 2.01344 6.98008 1.91756 6.88446ZM2.01344 7.36255C2.01344 7.36255 1.91756 7.45817 1.82168 7.45817C1.72581 7.45817 1.62993 7.45817 1.62993 7.36255C1.62993 7.36255 1.53405 7.26693 1.53405 7.17131V7.0757L1.62993 6.98008H1.72581C1.82168 6.98008 1.91756 6.98008 1.91756 7.0757C1.91756 7.0757 2.01344 7.17131 2.01344 7.26693C2.01344 7.26693 2.01344 7.26693 2.01344 7.36255ZM2.10932 6.69323H1.53405L2.10932 6.50199V6.40637L1.53405 6.21514H2.10932V6.11952H1.43817V6.21514L1.91756 6.40637C2.01344 6.40637 2.01344 6.40637 2.01344 6.40637H1.91756L1.43817 6.59761V6.69323H2.10932ZM2.10932 5.73705V5.64143V5.54582C2.10932 5.54582 2.10932 5.54582 2.01344 5.4502H1.91756H1.82168L1.72581 5.54582C1.72581 5.54582 1.72581 5.4502 1.62993 5.4502H1.53405H1.43817C1.43817 5.4502 1.34229 5.4502 1.34229 5.54582V5.64143V5.92829H2.01344V5.73705H2.10932ZM1.72581 5.92829H1.53405V5.73705C1.53405 5.64143 1.53405 5.64143 1.53405 5.64143C1.53405 5.64143 1.53405 5.64143 1.62993 5.64143C1.62993 5.64143 1.62993 5.64143 1.72581 5.64143C1.72581 5.64143 1.72581 5.64143 1.72581 5.73705C1.72581 5.73705 1.72581 5.73705 1.72581 5.83267V5.92829ZM2.01344 5.92829H1.82168V5.73705V5.64143C1.82168 5.64143 1.82168 5.64143 1.82168 5.54582C1.82168 5.54582 1.82168 5.54582 1.91756 5.54582C1.91756 5.54582 1.91756 5.54582 2.01344 5.54582C2.01344 5.54582 2.01344 5.54582 2.01344 5.64143C2.01344 5.64143 2.01344 5.64143 2.01344 5.73705V5.92829ZM2.10932 5.25896H1.43817V5.35458L2.10932 5.25896ZM2.10932 5.06773L1.91756 4.97211V4.68526L2.10932 4.58964V4.49402L1.43817 4.78088V4.87649L2.10932 5.06773ZM1.82168 4.97211L1.62993 4.87649H1.53405C1.53405 4.87649 1.62993 4.87649 1.62993 4.78088L1.82168 4.68526V4.97211ZM0.767025 15.1076C0.862903 15.1076 0.862903 15.1076 0.862903 15.1076C0.862903 15.1076 0.862903 15.1076 0.862903 15.2032V15.2988V15.3944C0.862903 15.3944 0.862903 15.49 0.767025 15.49H0.671147V15.5857H0.767025L0.862903 15.49C0.862903 15.49 0.862903 15.3944 0.862903 15.2988V15.2032C0.862903 15.2032 0.862903 15.1076 0.767025 15.1076H0.671147C0.767025 15.012 0.671147 15.012 0.767025 15.1076C0.671147 15.012 0.671147 15.1076 0.671147 15.1076C0.671147 15.1076 0.671147 15.2032 0.671147 15.2988C0.671147 15.3944 0.671147 15.3944 0.575269 15.3944C0.575269 15.3944 0.575269 15.3944 0.479391 15.3944H0.383513V15.2988C0.383513 15.2032 0.383513 15.2032 0.383513 15.2032H0.479391V15.1076H0.383513L0.287634 15.2032V15.2988V15.3944C0.287634 15.3944 0.287634 15.49 0.383513 15.49H0.479391H0.575269C0.575269 15.49 0.575269 15.49 0.671147 15.3944V15.2988C0.671147 15.2032 0.671147 15.2032 0.767025 15.1076C0.671147 15.1076 0.767025 15.1076 0.767025 15.1076ZM0.862903 14.8207H0.767025H0.287634V14.9163H0.671147C0.767025 14.9163 0.862903 14.9163 0.862903 14.8207C0.958781 14.9163 0.958781 14.8207 0.958781 14.8207C0.958781 14.8207 0.958781 14.7251 0.958781 14.6295C0.958781 14.5339 0.958781 14.5339 0.958781 14.4382L0.862903 14.3426C0.862903 14.3426 0.767025 14.3426 0.671147 14.3426H0.287634V14.4382H0.671147C0.767025 14.4382 0.767025 14.4382 0.862903 14.4382V14.5339C0.862903 14.6295 0.862903 14.7251 0.862903 14.8207C0.862903 14.7251 0.862903 14.7251 0.862903 14.8207ZM0.287634 14.247H0.958781V14.1514H0.671147V13.9602C0.671147 13.8645 0.671147 13.7689 0.575269 13.7689C0.575269 13.7689 0.479391 13.6733 0.383513 13.6733H0.287634C0.287634 13.6733 0.191756 13.6733 0.191756 13.7689V13.8645V13.9602V14.247H0.287634ZM0.383513 13.9602C0.383513 13.8645 0.383513 13.8645 0.383513 13.9602C0.383513 13.8645 0.383513 13.8645 0.383513 13.8645C0.383513 13.8645 0.383513 13.8645 0.479391 13.8645H0.575269V13.9602V14.1514H0.383513V13.9602ZM0.287634 13.5777H0.958781V13.0996H0.862903V13.4821H0.671147V13.0996H0.575269V13.4821L0.287634 13.5777L0.383513 13.0996H0.287634V13.5777ZM0.287634 12.9084H0.958781V12.8127H0.671147V12.7171C0.671147 12.7171 0.671147 12.7171 0.671147 12.6215C0.671147 12.6215 0.767025 12.6215 0.767025 12.5259L0.958781 12.4303V12.3347L0.767025 12.4303L0.671147 12.5259C0.671147 12.5259 0.671147 12.5259 0.671147 12.6215C0.671147 12.5259 0.671147 12.5259 0.575269 12.4303H0.479391H0.383513C0.383513 12.4303 0.287634 12.4303 0.287634 12.5259V12.6215V12.9084ZM0.383513 12.6215C0.383513 12.5259 0.383513 12.5259 0.383513 12.5259C0.383513 12.5259 0.383513 12.5259 0.479391 12.5259C0.479391 12.5259 0.479391 12.5259 0.575269 12.5259C0.575269 12.5259 0.575269 12.5259 0.575269 12.6215V12.7171V12.9084H0.383513V12.6215ZM0.287634 12.239H0.958781V12.1434L0.287634 12.239ZM0.287634 12.0478H0.958781V11.9522H0.479391L0.958781 11.5697V11.4741H0.287634V11.5697H0.862903L0.287634 12.0478ZM0.287634 11.3785L0.383513 11.1873H0.958781V11.0916H0.383513V10.9004H0.287634V11.3785ZM0.287634 10.7092H0.958781V10.2311H0.862903V10.6135H0.671147V10.2311H0.575269V10.6135L0.287634 10.7092L0.383513 10.2311H0.287634V10.7092ZM0.287634 10.1355H0.958781V10.0398H0.479391L0.958781 9.65737V9.56175H0.287634V9.65737H0.862903L0.287634 10.1355ZM0.287634 9.46614H0.958781V9.17928V9.08366V8.98805C0.958781 8.98805 0.958781 8.98805 0.862903 8.89243H0.767025H0.671147C0.575269 8.89243 0.575269 8.89243 0.479391 8.89243C0.479391 8.89243 0.383513 8.89243 0.383513 8.98805V9.08366V9.17928V9.46614H0.287634ZM0.383513 9.17928C0.383513 9.08367 0.383513 9.08366 0.383513 9.08366C0.383513 9.08366 0.383513 8.98805 0.479391 8.98805C0.479391 8.98805 0.575269 8.98805 0.671147 8.98805C0.767025 8.98805 0.767025 8.98805 0.767025 8.98805C0.767025 8.98805 0.862903 8.98805 0.862903 9.08366C0.862903 9.08366 0.862903 9.08367 0.862903 9.17928V9.2749V9.46614H0.383513V9.17928ZM0.287634 8.79681H0.958781V8.22311H0.862903V8.60558H0.671147V8.31872H0.575269V8.7012L0.287634 8.79681L0.383513 8.31872H0.287634V8.79681ZM0.287634 8.12749H0.958781V8.03187H0.479391L0.958781 7.74502V7.6494H0.287634H0.862903L0.287634 8.12749ZM0.479391 7.45817C0.575269 7.45817 0.575269 7.45817 0.671147 7.45817C0.767025 7.45817 0.767025 7.45817 0.862903 7.45817L0.958781 7.36255C0.958781 7.36255 0.958781 7.26693 0.958781 7.17131C0.958781 7.0757 0.958781 7.0757 0.958781 6.98008C0.958781 6.88446 0.862903 6.88446 0.767025 6.88446V6.98008C0.862903 6.98008 0.862903 6.98008 0.862903 7.0757V7.17131V7.26693L0.767025 7.36255C0.767025 7.36255 0.671147 7.36255 0.575269 7.36255C0.575269 7.36255 0.575269 7.36255 0.479391 7.45817C0.479391 7.36255 0.479391 7.36255 0.479391 7.26693V7.17131V7.0757L0.575269 6.98008V6.88446C0.479391 6.88446 0.479391 6.98008 0.479391 6.98008C0.479391 6.98008 0.383513 7.0757 0.383513 7.17131C0.383513 7.26693 0.383513 7.26693 0.383513 7.36255C0.383513 7.36255 0.383513 7.45817 0.479391 7.45817ZM0.287634 6.78884H0.958781V6.69323L0.287634 6.78884ZM0.958781 6.0239V5.92829L0.287634 6.21514V6.31076L0.958781 6.59761V6.50199L0.767025 6.40637V6.11952L0.958781 6.0239ZM0.671147 6.40637L0.479391 6.31076H0.383513C0.383513 6.31076 0.479391 6.31076 0.479391 6.21514L0.671147 6.11952V6.40637ZM0.958781 5.54582H0.671147V5.25896H0.575269V5.54582H0.383513V5.16335H0.287634V5.64143L0.958781 5.54582ZM0.958781 4.97211H0.287634V5.06773L0.958781 4.97211ZM0.958781 4.30279H0.287634V4.39841H0.862903L0.287634 4.68526V4.78088H0.958781V4.68526H0.479391L0.958781 4.30279ZM0.958781 3.63347V3.53785L0.287634 3.8247V3.92032L0.958781 4.20717V4.11155L0.767025 4.01594V3.72908L0.958781 3.63347ZM0.671147 4.01594L0.479391 3.92032H0.383513C0.383513 3.92032 0.479391 3.92032 0.479391 3.8247L0.671147 3.72908V4.01594ZM0.958781 2.96414H0.287634V3.05976H0.862903L0.287634 3.44223V3.53785H0.958781V3.44223H0.479391L0.958781 2.96414ZM0.479391 2.77291C0.575269 2.77291 0.575269 2.77291 0.671147 2.77291C0.767025 2.77291 0.767025 2.77291 0.862903 2.77291C0.862903 2.77291 0.958781 2.77291 0.958781 2.67729C0.958781 2.67729 0.958781 2.58167 0.958781 2.48606C0.958781 2.48606 0.958781 2.39044 0.958781 2.29482C0.958781 2.1992 0.862903 2.1992 0.767025 2.1992V2.29482C0.862903 2.29482 0.862903 2.29482 0.862903 2.39044V2.48606V2.58167L0.767025 2.67729C0.767025 2.67729 0.671147 2.67729 0.575269 2.67729C0.575269 2.77291 0.575269 2.77291 0.479391 2.77291C0.479391 2.67729 0.479391 2.67729 0.479391 2.58167V2.48606V2.39044L0.575269 2.29482V2.1992C0.479391 2.1992 0.479391 2.29482 0.479391 2.29482C0.479391 2.29482 0.383513 2.39044 0.383513 2.48606C0.383513 2.58167 0.383513 2.58167 0.383513 2.67729C0.383513 2.77291 0.383513 2.77291 0.479391 2.77291ZM0.958781 2.00797H0.287634V2.10359L0.958781 2.00797ZM0.958781 1.33865L0.862903 1.81673H0.671147V1.43426H0.575269V1.81673H0.383513V1.33865H0.287634V1.81673H0.958781V1.33865ZM0.958781 1.14741H0.671147V1.05179C0.671147 1.05179 0.671147 1.05179 0.671147 0.956175C0.671147 0.956175 0.767025 0.956175 0.767025 0.860558L0.958781 0.76494V0.669323L0.767025 0.76494C0.767025 0.76494 0.671147 0.76494 0.671147 0.860558C0.671147 0.860558 0.671147 0.860558 0.671147 0.956175C0.671147 0.860558 0.671147 0.860558 0.575269 0.860558H0.479391H0.383513C0.383513 0.860558 0.287634 0.860558 0.287634 0.956175V1.05179V1.33865L0.958781 1.14741ZM0.575269 1.14741H0.383513V0.956175C0.383513 0.860558 0.383513 0.860558 0.383513 0.860558C0.383513 0.860558 0.383513 0.860558 0.479391 0.860558C0.479391 0.860558 0.479391 0.860558 0.575269 0.860558C0.575269 0.860558 0.575269 0.860558 0.575269 0.956175V1.05179V1.14741ZM0.958781 0.573705L0.767025 0.478088V0.191235L0.958781 0.0956175V0L0.287634 0.286853V0.38247L0.958781 0.573705ZM0.671147 0.478088L0.479391 0.38247H0.383513H0.479391L0.671147 0.286853V0.478088ZM2.10932 24H2.30108V16.1594H2.10932V24Z" fill="#868585"/>
<path d="M213.616 16.0637C213.425 16.0637 213.329 16.1594 213.329 16.255C213.329 16.1594 213.137 16.0637 213.041 16.0637C212.754 16.0637 212.658 16.255 212.658 16.4462V16.8287H214V16.4462C214 16.1594 213.904 16.0637 213.616 16.0637ZM213.233 16.6374H212.754V16.4462C212.754 16.255 212.849 16.255 212.945 16.255C213.137 16.255 213.137 16.4462 213.137 16.4462V16.6374H213.233ZM213.808 16.6374H213.329V16.4462C213.329 16.3506 213.425 16.1594 213.616 16.1594C213.712 16.1594 213.904 16.255 213.904 16.3506V16.6374H213.808ZM213.904 15.3944C214 15.3944 214 15.2988 214 15.2988V15.2032H213.904C213.904 15.2032 213.904 15.2032 213.808 15.2032H213.233C213.137 15.2032 212.945 15.2032 212.945 15.49C212.945 15.6813 213.041 15.7769 213.233 15.7769V15.5857C213.233 15.5857 213.041 15.5857 213.041 15.3944C213.041 15.2988 213.137 15.2032 213.233 15.2032C213.329 15.2032 213.329 15.2032 213.425 15.2988L213.521 15.49C213.521 15.5857 213.616 15.6813 213.808 15.6813C214 15.6813 214.096 15.5857 214.096 15.3944C214 15.5857 213.904 15.49 213.904 15.3944ZM213.712 15.7769C213.616 15.7769 213.616 15.7769 213.521 15.6813C213.521 15.5857 213.425 15.49 213.425 15.3944H213.712C213.808 15.3944 213.904 15.49 213.904 15.5857C213.904 15.6813 213.808 15.7769 213.712 15.7769ZM213.329 14.5339H214V14.3426H213.329C213.233 14.3426 213.041 14.3426 213.041 14.6295C213.041 14.7251 213.137 14.8207 213.137 14.9163H213.041V15.1076H214V14.9163H213.329C213.233 14.9163 213.137 14.8207 213.137 14.7251C213.137 14.5339 213.233 14.5339 213.329 14.5339ZM213.616 13.5777V13.7689C213.712 13.7689 213.904 13.7689 213.904 13.9602C213.904 14.1514 213.616 14.1514 213.521 14.1514C213.137 14.1514 213.137 14.0558 213.137 13.9602C213.137 13.8645 213.233 13.7689 213.329 13.7689V13.5777C213.233 13.5777 213.041 13.5777 213.041 13.8645C213.041 14.1514 213.329 14.247 213.616 14.247C214 14.247 214.096 14.1514 214.096 13.8645C214 13.5777 213.808 13.5777 213.616 13.5777ZM213.521 12.7171C213.233 12.7171 213.041 12.8127 213.041 13.0996C213.041 13.3864 213.329 13.4821 213.521 13.4821C213.808 13.4821 214 13.3864 214 13.0996C214 12.8127 213.808 12.7171 213.521 12.7171ZM213.521 13.2908C213.329 13.2908 213.137 13.2908 213.137 13.0996C213.137 12.9084 213.329 12.9084 213.521 12.9084C213.712 12.9084 213.904 12.9084 213.904 13.0996C213.904 13.1952 213.712 13.2908 213.521 13.2908ZM212.658 12.0478H214V11.6653C214 11.2829 213.712 11.1872 213.329 11.1872C212.945 11.1872 212.658 11.2829 212.658 11.6653V12.0478ZM212.754 11.761C212.754 11.4741 213.041 11.4741 213.329 11.4741C213.521 11.4741 213.808 11.4741 213.808 11.761V11.9522H212.754V11.761ZM213.904 10.6135C214 10.6135 214 10.5179 214 10.5179V10.4223H213.904C213.904 10.5179 213.904 10.5179 213.808 10.5179H213.233C213.137 10.5179 212.945 10.5179 212.945 10.8048C212.945 10.996 213.041 11.0916 213.233 11.0916V10.9004C213.233 10.9004 213.041 10.9004 213.041 10.7092C213.041 10.6135 213.137 10.5179 213.233 10.5179C213.329 10.5179 213.329 10.5179 213.425 10.6135L213.521 10.8048C213.521 10.9004 213.616 10.996 213.808 10.996C214 10.996 214.096 10.9004 214.096 10.7092C214 10.7092 213.904 10.6135 213.904 10.6135ZM213.712 10.9004C213.616 10.9004 213.616 10.9004 213.521 10.8048C213.521 10.7092 213.425 10.6135 213.425 10.5179H213.712C213.808 10.5179 213.904 10.6135 213.904 10.7092C213.904 10.9004 213.808 10.9004 213.712 10.9004ZM212.945 10.1355V10.3267L213.904 10.0398V9.8486L212.945 9.56175V9.75298L213.712 9.94422L212.945 10.1355ZM212.849 9.2749H212.658V9.46613H212.849V9.2749ZM212.945 9.46613H213.904V9.2749H212.945V9.46613ZM212.945 8.98804V9.17928L213.904 8.89243V8.70119L212.945 8.41434V8.60557L213.712 8.79681L212.945 8.98804ZM214 8.12749H213.041V8.31872H214V8.12749ZM212.658 8.2231H212.849V8.12749H212.658V8.2231ZM213.616 7.26693V7.45816C213.712 7.45816 213.808 7.45816 213.808 7.6494C213.808 7.84063 213.616 7.84063 213.425 7.84063V7.26693H213.329C213.137 7.26693 212.849 7.26693 212.849 7.55378C212.849 7.84063 213.137 7.93625 213.425 7.93625C213.808 7.93625 213.904 7.84063 213.904 7.55378C214 7.26693 213.712 7.26693 213.616 7.26693ZM213.425 7.74502C213.329 7.74502 213.137 7.74502 213.137 7.55378C213.137 7.45816 213.233 7.36255 213.425 7.36255H213.521V7.74502H213.425ZM213.329 6.59761H214V6.40637H213.329C213.233 6.40637 213.041 6.40637 213.041 6.69322C213.041 6.78884 213.137 6.88446 213.137 6.88446H213.041V7.07569H214V6.88446H213.329C213.233 6.88446 213.137 6.78884 213.137 6.69322C213.137 6.59761 213.233 6.59761 213.329 6.59761ZM213.904 5.73705H214V5.54581H212.658V5.73705H213.137C213.041 5.73705 213.041 5.83266 213.041 5.92828C213.041 6.21514 213.329 6.21514 213.521 6.21514C213.808 6.21514 214 6.11952 214 5.92828C214 5.83266 213.904 5.73705 213.904 5.73705ZM213.521 6.0239C213.329 6.0239 213.137 6.0239 213.137 5.83266C213.137 5.64143 213.329 5.64143 213.521 5.64143C213.712 5.64143 213.904 5.64143 213.904 5.83266C213.904 6.0239 213.712 6.0239 213.521 6.0239ZM213.904 4.87649C214 4.87649 214 4.78087 214 4.78087V4.68526H213.904C213.904 4.68526 213.904 4.68526 213.808 4.68526H213.233C213.137 4.68526 212.945 4.68525 212.945 4.97211C212.945 5.16334 213.041 5.25896 213.233 5.25896V5.16334C213.233 5.16334 213.041 5.16334 213.041 4.97211C213.041 4.87649 213.137 4.78087 213.233 4.78087C213.329 4.78087 213.329 4.78087 213.425 4.87649L213.521 5.06773C213.521 5.16334 213.616 5.25896 213.808 5.25896C214 5.25896 214.096 5.16334 214.096 4.97211C214 4.97211 213.904 4.87649 213.904 4.87649ZM213.712 5.25896C213.616 5.25896 213.616 5.25896 213.521 5.16334C213.521 5.06773 213.425 4.97211 213.425 4.87649H213.712C213.808 4.87649 213.904 4.97211 213.904 5.06773C213.904 5.16334 213.808 5.25896 213.712 5.25896ZM213.041 4.11155C213.521 4.11155 213.329 3.53784 213.712 3.53784C213.808 3.53784 213.904 3.63346 213.904 3.72908C213.904 3.92032 213.712 4.01593 213.616 4.01593V4.20717C213.904 4.20717 214.096 4.11155 214.096 3.8247C214.096 3.63346 214 3.44223 213.712 3.44223C213.233 3.44223 213.425 4.01593 213.041 4.01593C212.945 4.01593 212.849 3.92031 212.849 3.8247C212.849 3.63346 212.945 3.63346 213.041 3.63346V3.34661C212.754 3.34661 212.658 3.44223 212.658 3.72908C212.658 4.01593 212.849 4.11155 213.041 4.11155ZM214 2.86852H213.808V3.05976H214V2.86852ZM214 2.58167L213.616 2.48605V2.10358L214 2.00796V1.81673L212.658 2.1992V2.39043L214 2.7729V2.58167ZM213.521 2.48605L212.849 2.29482L213.521 2.10358V2.48605ZM214 1.52988H213.808V1.72111H214V1.52988Z" fill="#868585"/>
</svg>

