<svg width="76" height="25" viewBox="0 0 76 25" fill="none" xmlns="http://www.w3.org/2000/svg">
<path fill-rule="evenodd" clip-rule="evenodd" d="M10.9545 14.9818C9.86364 15.4827 8.36364 15.9836 6.81818 15.9836C5.68182 15.9836 4.72727 15.6193 4.22727 14.8907C3.95455 14.5264 3.77273 13.8889 3.77273 13.4791C9.22727 13.6157 12.5909 12.3862 12.5909 8.92532C12.5909 6.37523 10.6364 4.8725 7.90909 4.8725C3.04545 4.8725 0 9.19854 0 13.3424C0 16.8944 1.95455 19.0346 5.90909 19.0346C7.18182 19.0346 8.95455 18.7614 10.3636 18.2605L10.9545 14.9818ZM8.86364 8.97086C8.86364 10.1548 7.36364 10.6102 4.22727 10.6102C4.5 9.33516 5.54545 7.83242 7.40909 7.83242C8.31818 7.78689 8.86364 8.24226 8.86364 8.97086Z" fill="#626362"/>
<path fill-rule="evenodd" clip-rule="evenodd" d="M69.7272 7.9235C71.3181 7.9235 71.8636 9.24408 71.8636 10.5191C71.8636 12.8871 70.6818 16.0291 68.4545 16.0291C67.0454 16.0291 66.3181 14.9362 66.3181 13.3424C66.3181 11.2933 67.4545 7.9235 69.7272 7.9235ZM70.3181 4.8725C65.5 4.8725 62.2272 8.74317 62.2272 13.4335C62.2272 16.8033 64.5 19.0346 67.9091 19.0346C72.5909 19.0346 76 15.4372 76 10.4736C76 7.37705 73.909 4.8725 70.3181 4.8725Z" fill="#626362"/>
<path fill-rule="evenodd" clip-rule="evenodd" d="M60.8182 15.3005C60.1364 15.5738 59.3182 15.8925 58.1364 15.8925C56.6364 15.8925 55.4546 14.9362 55.4546 13.1148C55.4546 10.5647 57.2273 8.15118 60.0909 8.15118C60.9091 8.15118 61.2727 8.19672 61.8182 8.4244L62.4091 5.23679C61.8182 4.96357 61.3182 4.91803 60.1818 4.91803C55.0455 4.91803 51.3636 8.65209 51.3636 13.479C51.3636 16.9854 53.7273 18.9891 57.0455 18.9891C58.3182 18.9891 59.4091 18.8525 60.2273 18.5337L60.8182 15.3005Z" fill="#626362"/>
<path fill-rule="evenodd" clip-rule="evenodd" d="M39.5909 5.19125L42.2727 17.4863C42.3182 17.8051 42.3182 17.9417 42.2273 18.1239C41.7273 19.0346 40.9546 19.8543 40 20.4918C39.2273 21.0838 38.3637 21.4025 37.7273 21.5847L38.6364 25C39.5455 24.8634 41.4091 24.1803 43 22.7231C44.7727 20.9927 46.4091 18.5337 48.1818 14.9818L53 5.28233H48.8182L46.3637 11.2477C45.7727 12.7049 45.4546 13.6157 45.1818 14.4353H45.1364C45 13.5246 44.8637 12.6138 44.6818 11.2022L43.8637 5.28233C43.7727 5.19125 39.5909 5.19125 39.5909 5.19125Z" fill="#626362"/>
<path fill-rule="evenodd" clip-rule="evenodd" d="M19.1818 3.23315C19.5 3.18761 20.0909 3.09654 20.7727 3.09654C22.2727 3.09654 23.6364 3.68852 23.6364 5.51002C23.6364 7.33151 22.0455 8.92532 19.6364 8.92532C19 8.92532 18.5455 8.87978 18.1364 8.78871L19.1818 3.23315ZM12.3636 18.8069H16.2727L17.5455 12.0674C18 12.1129 18.5 12.204 19.1818 12.204C21.4546 12.204 23.6364 11.7031 25.1364 10.4736C26.5909 9.33515 27.6818 7.5592 27.6818 5.19126C27.6818 3.4153 26.9091 2.09472 25.6364 1.27505C24.3182 0.318761 22.3636 0 20.7273 0C18.1364 0 17 0.136612 14.6364 0.910747L14.1364 3.50638L15.3182 3.36976L12.3636 18.8069Z" fill="#626362"/>
<path fill-rule="evenodd" clip-rule="evenodd" d="M33.9545 13.5701C33.9091 13.8433 33.8182 14.071 33.6818 14.2532C33.2273 15.1639 32.2273 15.7559 31.2273 15.7559C30.2727 15.7559 29.6364 15.255 29.9091 14.1621C30.2273 12.5228 32.0455 12.0218 34.2727 12.0218L33.9545 13.5701ZM37.3182 18.5337C37.3182 17.7595 37.5 16.5756 37.7727 15.255L38.7273 10.5647C39.3636 7.37704 38.4545 4.73587 33.9091 4.73587C32 4.73587 30.4091 5.10017 29.2727 5.55554L28.6364 8.65208C29.6364 8.0601 31.1818 7.65026 32.5455 7.65026C34.6364 7.65026 34.8182 8.65208 34.6364 9.42622V9.47175C29.8182 9.47175 26.3182 11.1111 25.6364 14.663C25.1818 16.8033 26.4545 18.8524 29.1818 18.8524C30.7727 18.8524 32.2727 18.2605 33.3636 17.2131H33.4091V18.5337H37.3182Z" fill="#626362"/>
</svg>

