<svg width="157" height="85" viewBox="0 0 157 85" fill="none" xmlns="http://www.w3.org/2000/svg">
<path fill-rule="evenodd" clip-rule="evenodd" d="M22.5016 31.002C20.2856 32.024 17.0467 33.0461 14.1488 33.0461C11.7622 33.0461 9.88708 32.3647 8.86428 30.8317C8.35288 29.9799 8.01194 28.7876 8.01194 27.9359C19.2628 28.2765 26.0814 25.5511 26.0814 18.5671C26.0814 13.4569 21.9902 10.2204 16.3648 10.2204C6.13681 10.2204 0 19.0781 0 27.5952C0 34.9198 4.09121 39.3487 12.1031 39.3487C14.6602 39.3487 18.4104 38.8377 21.3084 37.6453L22.5016 31.002ZM18.24 18.5671C18.24 21.1222 15.0011 21.9739 8.69381 21.9739C9.20521 19.4188 11.4213 16.1824 15.1716 16.1824C17.0467 16.1824 18.24 17.2044 18.24 18.5671Z" fill="white"/>
<path fill-rule="evenodd" clip-rule="evenodd" d="M143.874 16.523C147.113 16.523 148.306 19.2485 148.306 21.8036C148.306 26.5731 145.749 33.2164 141.317 33.2164C138.419 33.2164 136.885 31.002 136.885 27.7655C136.885 23.3367 139.271 16.523 143.874 16.523ZM145.067 10.2204C135.18 10.2204 128.362 18.2264 128.362 27.9359C128.362 34.9198 133.135 39.519 140.124 39.519C149.84 39.519 156.83 32.024 156.83 21.8036C156.83 15.3306 152.568 10.2204 145.067 10.2204Z" fill="white"/>
<path fill-rule="evenodd" clip-rule="evenodd" d="M125.464 31.6834C124.1 32.1944 122.395 32.8757 119.838 32.8757C116.77 32.8757 114.383 31.002 114.383 27.0842C114.383 21.8036 117.963 16.8637 123.929 16.8637C125.634 16.8637 126.486 17.0341 127.509 17.3747L128.702 10.9018C127.509 10.3908 126.316 10.2204 123.929 10.2204C113.36 10.2204 105.689 17.8858 105.689 27.9359C105.689 35.0902 110.633 39.3487 117.452 39.3487C120.179 39.3487 122.395 39.008 124.1 38.497L125.464 31.6834Z" fill="white"/>
<path fill-rule="evenodd" clip-rule="evenodd" d="M81.6537 10.9018L87.2791 36.1122C87.4495 36.7936 87.4495 37.1343 87.1086 37.475C86.0858 39.3487 84.5516 41.0521 82.6765 42.4148C80.9718 43.6072 79.2671 44.2886 77.9034 44.6293L79.7785 51.6132C81.6537 51.2726 85.5744 49.9098 88.8133 46.8437C92.5635 43.2665 95.8024 38.3267 99.5527 30.8317L109.61 10.7315H100.575L95.4615 22.996C94.2682 26.0621 93.5863 27.9359 93.0749 29.4689H92.9045C92.734 27.7655 92.3931 25.7215 92.0521 22.8257L90.3475 10.7315L81.6537 10.9018Z" fill="white"/>
<path fill-rule="evenodd" clip-rule="evenodd" d="M39.5483 6.81363C40.2302 6.64329 41.253 6.47295 42.7872 6.47295C46.0261 6.47295 48.5831 7.66533 48.5831 11.4128C48.5831 15.1603 45.3442 18.3968 40.4007 18.3968C39.0369 18.3968 38.0141 18.2265 37.3323 18.0561L39.5483 6.81363ZM25.3996 38.8377H33.4115L35.9685 25.0401C36.8209 25.2104 38.0141 25.2104 39.3779 25.2104C43.9805 25.2104 48.4126 24.1884 51.6515 21.6333C54.7199 19.2485 56.936 15.6713 56.936 10.7315C56.936 6.98397 55.2313 4.42886 52.6743 2.55511C50.1173 0.511022 46.0261 0 42.6168 0C37.3323 0 34.9457 0.340681 30.0022 1.87375L28.9794 7.15431L31.3659 6.81363L25.3996 38.8377Z" fill="white"/>
<path fill-rule="evenodd" clip-rule="evenodd" d="M70.0619 28.1062C69.8914 28.6172 69.721 29.1282 69.5505 29.6393C68.5277 31.3427 66.4821 32.8757 64.4365 32.8757C62.5614 32.8757 61.1976 31.8537 61.709 29.6393C62.3909 26.2325 66.1412 25.2104 70.7438 25.2104L70.0619 28.1062ZM76.8806 38.3266C76.8806 36.7936 77.2215 34.2385 77.9034 31.513L79.7785 21.8036C81.1423 15.3307 79.2671 9.70941 69.8914 9.70941C65.9707 9.70941 62.7318 10.5611 60.3453 11.4128L58.9816 17.7154C61.0272 16.523 64.266 15.6713 67.164 15.6713C71.4256 15.6713 71.7666 17.7154 71.5961 19.2485V19.5892C61.709 19.5892 54.5494 22.996 53.0152 30.3206C52.1629 34.7495 54.7199 38.8377 60.3453 38.8377C63.5842 38.8377 66.6526 37.6453 69.0391 35.4309H69.2096V38.1563L76.8806 38.3266Z" fill="white"/>
<path d="M2.21608 56.8938L1.87515 59.2786H4.43215L4.26169 59.9599H1.87515L1.53421 62.3447H4.60262L4.43215 63.026H0.511414L1.36375 56.0421H5.45495L5.28449 56.7234H2.21608V56.8938Z" fill="white"/>
<path d="M6.8187 59.4489C7.15963 59.1082 7.3301 58.5972 7.67103 58.4268C8.01196 58.2565 8.3529 58.0862 8.69383 58.0862C8.8643 58.0862 9.03477 58.0862 9.20523 58.2565C9.3757 58.4268 9.54617 58.4268 9.54617 58.5972C9.71663 58.7675 9.71663 58.9379 9.71663 59.1082C9.71663 59.2785 9.71663 59.6192 9.71663 59.9599L9.3757 63.1964H8.69383L9.03477 59.9599C9.03477 59.6192 9.03477 59.2785 9.03477 59.1082C9.03477 58.9379 8.69383 58.7675 8.52336 58.7675C8.3529 58.7675 8.18243 58.7675 8.01196 58.9379C7.8415 59.1082 7.67103 59.1082 7.50056 59.2785C7.3301 59.4489 7.15963 59.6192 7.15963 59.7896C7.15963 59.9599 6.8187 60.3006 6.8187 60.6413L6.47776 63.026H5.62543L6.13683 57.9158H6.47776C6.64823 57.9158 6.8187 58.0862 6.8187 58.2565V59.4489Z" fill="white"/>
<path d="M16.1944 61.8337C16.0239 62.004 15.8534 62.1743 15.8534 62.3447C15.683 62.515 15.5125 62.6854 15.5125 62.6854C15.1716 63.026 15.1716 63.026 15.0011 63.1964C14.8306 63.1964 14.6602 63.3667 14.4897 63.3667C14.3192 63.3667 14.1488 63.3667 13.9783 63.1964C13.8078 63.026 13.6374 62.8557 13.4669 62.8557C13.2964 62.6854 13.2964 62.515 13.126 62.3447C13.126 62.1743 12.9555 61.8337 12.9555 61.6633C12.9555 61.3226 12.9555 61.1523 13.126 60.8116C13.126 60.4709 13.2964 60.3006 13.4669 59.9599C13.6374 59.6192 13.8078 59.4489 13.9783 59.2785C14.1488 59.1082 14.3192 58.9379 14.6602 58.7675C15.0011 58.5972 15.1716 58.4268 15.5125 58.4268C15.8534 58.2565 16.0239 58.2565 16.3648 58.2565C16.5353 58.2565 16.7058 58.2565 17.0467 58.2565C17.2172 58.2565 17.3876 58.4268 17.7286 58.4268L17.2172 63.1964H16.5353C16.3648 63.1964 16.3648 63.1964 16.1944 63.026C16.0239 62.8557 16.1944 62.8557 16.1944 62.8557V61.8337ZM16.5353 58.7675H16.3648H16.1944C16.0239 58.7675 15.8534 58.7675 15.683 58.9379C15.5125 59.1082 15.342 59.1082 15.1716 59.2785C15.0011 59.4489 14.8306 59.6192 14.8306 59.6192C14.6602 59.7896 14.4897 59.9599 14.4897 60.1302C14.4897 60.3006 14.3192 60.4709 14.3192 60.8116C14.3192 60.9819 14.3192 61.1523 14.3192 61.493C14.3192 62.3447 14.6602 62.6854 15.1716 62.6854C15.342 62.6854 15.5125 62.6854 15.683 62.515C15.8534 62.3447 16.0239 62.1743 16.0239 62.1743C16.1944 62.004 16.3648 61.8336 16.3648 61.493C16.5353 61.3226 16.5353 60.9819 16.7058 60.6413L16.5353 58.7675Z" fill="white"/>
<path d="M18.24 63.1964L19.0923 55.8717H19.9447L19.0923 63.1964H18.24Z" fill="white"/>
<path d="M21.8198 58.2565L21.1379 63.3667H20.2856L20.9675 58.2565H21.8198ZM22.1607 56.7234C22.1607 56.8938 22.1607 56.8938 22.1607 57.0641C22.1607 57.2345 21.9903 57.2345 21.9903 57.2345L21.8198 57.4048H21.6493C21.4789 57.4048 21.4789 57.4048 21.4789 57.4048L21.3084 57.2345L21.1379 57.0641C21.1379 57.0641 21.1379 56.8938 21.1379 56.7234C21.1379 56.5531 21.1379 56.5531 21.1379 56.3828C21.1379 56.2124 21.3084 56.2124 21.3084 56.2124L21.4789 56.0421H21.6493C21.8198 56.0421 21.8198 56.0421 21.8198 56.0421L21.9903 56.2124L22.1607 56.3828C22.1607 56.3828 22.1607 56.5531 22.1607 56.7234Z" fill="white"/>
<path d="M25.7405 61.8337C25.5701 62.004 25.3996 62.1743 25.3996 62.3447C25.2291 62.515 25.0587 62.6854 25.0587 62.6854C24.8882 62.8557 24.7177 62.8557 24.5473 63.0261C24.3768 63.0261 24.2063 63.1964 24.0359 63.1964C23.8654 63.1964 23.6949 63.1964 23.5245 63.0261C23.354 62.8557 23.1835 62.8557 23.1835 62.6854C23.0131 62.515 23.0131 62.3447 22.8426 62.1743C22.8426 62.004 22.6721 61.6633 22.6721 61.493C22.6721 61.1523 22.6721 60.982 22.8426 60.6413C22.8426 60.3006 23.0131 60.1303 23.1835 59.7896C23.354 59.4489 23.5245 59.2786 23.6949 59.1082C23.8654 58.9379 24.0359 58.7675 24.3768 58.5972C24.5473 58.4269 24.8882 58.2565 25.2291 58.2565C25.5701 58.0862 25.7405 58.0862 26.0815 58.0862C26.2519 58.0862 26.4224 58.0862 26.7633 58.0862C26.9338 58.0862 27.1043 58.2565 27.4452 58.2565L26.9338 63.0261H26.4224C26.2519 63.0261 26.2519 63.0261 26.0815 62.8557V62.6854L25.7405 61.8337ZM26.0815 58.7675H25.911H25.7405C25.5701 58.7675 25.3996 58.7675 25.2291 58.9379C25.0587 59.1082 24.8882 59.1082 24.7177 59.2786C24.5473 59.4489 24.3768 59.6192 24.3768 59.6192C24.2063 59.7896 24.0359 59.9599 24.0359 60.1303C23.8654 60.3006 23.8654 60.4709 23.8654 60.8116C23.8654 60.982 23.6949 61.1523 23.6949 61.493C23.6949 62.3447 24.0359 62.6854 24.5473 62.6854C24.7177 62.6854 24.8882 62.6854 25.0587 62.515C25.2291 62.3447 25.3996 62.1743 25.3996 62.1743C25.5701 62.004 25.7405 61.8337 25.7405 61.493C25.911 61.1523 25.911 60.982 26.0815 60.6413V58.7675Z" fill="white"/>
<path d="M28.9794 59.4489C29.3203 59.1082 29.4908 58.5972 29.8317 58.4268C30.1727 58.2565 30.5136 58.0862 30.8545 58.0862C31.025 58.0862 31.1955 58.0862 31.3659 58.2565C31.5364 58.4268 31.7069 58.4268 31.7069 58.5972C31.8773 58.7675 31.8773 58.9379 31.8773 59.1082C31.8773 59.2785 31.8773 59.6192 31.8773 59.9599L31.5364 63.1964H30.6841L31.025 59.9599C31.025 59.6192 31.025 59.2785 31.025 59.1082C31.025 58.9379 30.6841 58.7675 30.5136 58.7675C30.3431 58.7675 30.1727 58.7675 30.0022 58.9379C29.8317 59.1082 29.6613 59.1082 29.4908 59.2785C29.3203 59.4489 29.1499 59.6192 29.1499 59.7896C29.1499 59.9599 28.9794 60.3006 28.9794 60.6413L28.6385 63.026H27.7861L28.468 57.9158H28.8089C28.9794 57.9158 29.1499 58.0862 29.1499 58.2565L28.9794 59.4489Z" fill="white"/>
<path d="M36.8209 58.2565V58.5972V58.7675C36.8209 58.7675 36.8209 58.9379 36.6504 58.9379L33.7525 62.515H36.139L35.9685 63.1964H32.3887V62.8557V62.6854C32.3887 62.6854 32.3887 62.515 32.5592 62.515L35.4571 58.9379H33.0706L33.2411 58.2565H36.8209Z" fill="white"/>
<path d="M40.0597 61.8337C39.8893 62.004 39.7188 62.1743 39.7188 62.3447C39.5483 62.515 39.3779 62.6854 39.3779 62.6854C39.2074 63.026 39.0369 63.026 38.8665 63.1964C38.696 63.1964 38.5255 63.3667 38.3551 63.3667C38.1846 63.3667 38.0141 63.3667 37.8437 63.1964C37.6732 63.1964 37.5027 63.026 37.5027 62.8557C37.3323 62.6854 37.3323 62.515 37.1618 62.3447C37.1618 62.1743 36.9913 61.8337 36.9913 61.6633C36.9913 61.3226 36.9913 61.1523 37.1618 60.8116C37.1618 60.4709 37.3323 60.3006 37.5027 59.9599C37.6732 59.6192 37.8437 59.4489 38.0141 59.2785C38.1846 59.1082 38.3551 58.9379 38.696 58.7675C38.8665 58.5972 39.2074 58.4268 39.3779 58.4268C39.7188 58.2565 39.8893 58.2565 40.2302 58.2565C40.4007 58.2565 40.5711 58.2565 40.9121 58.2565C41.0825 58.2565 41.253 58.4268 41.5939 58.4268L41.0825 63.1964H40.5711C40.4007 63.1964 40.4007 63.1964 40.4007 63.026V62.8557L40.0597 61.8337ZM40.4007 58.7675H40.2302H40.0597C39.8893 58.7675 39.7188 58.7675 39.5483 58.9379C39.3779 59.1082 39.2074 59.1082 39.0369 59.2785C38.8665 59.4489 38.696 59.6192 38.696 59.6192C38.5255 59.7896 38.3551 59.9599 38.3551 60.1302C38.1846 60.3006 38.1846 60.4709 38.1846 60.8116C38.1846 60.9819 38.0141 61.1523 38.0141 61.493C38.0141 62.3447 38.3551 62.6854 38.696 62.6854C38.8665 62.6854 39.0369 62.6854 39.2074 62.515C39.3779 62.3447 39.5483 62.1743 39.5483 62.1743C39.7188 62.004 39.8893 61.8336 39.8893 61.493C40.0597 61.1523 40.0597 60.9819 40.2302 60.6413L40.4007 58.7675Z" fill="white"/>
<path d="M47.5603 62.8557C47.3898 63.0261 47.2193 63.026 47.0489 63.1964C46.8784 63.3667 46.7079 63.3667 46.5375 63.3667C46.367 63.3667 46.1965 63.3667 46.0261 63.3667C45.6851 63.3667 45.5147 63.3667 45.1737 63.1964C45.0033 63.026 44.8328 63.0261 44.6623 62.8557C44.4919 62.6854 44.3214 62.515 44.3214 62.1743C44.3214 61.8337 44.3214 61.493 44.3214 61.3226C44.3214 60.982 44.3214 60.4709 44.4919 60.1303C44.6623 59.7896 44.8328 59.4489 45.0033 59.1082C45.1737 58.7675 45.5147 58.5972 45.8556 58.4268C46.1965 58.2565 46.5375 58.0862 46.8784 58.0862C47.2193 58.0862 47.5603 58.0862 47.7307 58.2565C47.9012 58.4269 48.0717 58.5972 48.2421 58.7675L47.9012 59.1082C47.9012 59.1082 47.9012 59.1082 47.7307 59.1082C47.7307 59.1082 47.7307 59.1082 47.5603 59.1082H47.3898L47.2194 58.9379C47.2194 58.9379 47.0489 58.7675 46.8784 58.7675C46.7079 58.7675 46.5375 58.7675 46.5375 58.7675C46.367 58.7675 46.1965 58.7675 45.8556 58.9379C45.6851 59.1082 45.5147 59.2786 45.3442 59.4489C45.1737 59.6192 45.0033 59.9599 45.0033 60.1303C44.8328 60.4709 44.8328 60.8116 44.8328 61.1523C44.8328 61.3226 44.8328 61.493 44.8328 61.6633C44.8328 61.8337 45.0033 62.004 45.0033 62.004C45.0033 62.004 45.1737 62.1743 45.3442 62.3447C45.5147 62.3447 45.6851 62.515 45.8556 62.515C46.0261 62.515 46.1965 62.515 46.367 62.3447C46.5375 62.3447 46.7079 62.1743 46.7079 62.1743C46.8784 62.1743 46.8784 62.004 47.0489 62.004C47.2193 62.004 47.2194 61.8337 47.2194 61.8337C47.2194 61.8337 47.3898 61.8337 47.3898 62.004L47.5603 62.3447C47.9012 62.515 47.7307 62.6854 47.5603 62.8557Z" fill="white"/>
<path d="M50.6287 63.1964C50.2877 63.1964 50.1173 63.1964 49.9468 63.026C49.7763 62.8557 49.6059 62.8557 49.4354 62.6854C49.2649 62.515 49.0945 62.3447 49.0945 62.004C48.924 61.6633 48.924 61.493 48.924 61.1523C48.924 60.8116 48.924 60.3006 49.0945 59.9599C49.2649 59.6192 49.4354 59.2785 49.6059 58.9379C49.7763 58.5972 50.1173 58.4268 50.4582 58.2565C50.7991 58.0862 51.1401 57.9158 51.481 57.9158C51.8219 57.9158 51.9924 57.9158 52.1629 58.0862C52.3333 58.2565 52.5038 58.2565 52.6743 58.4268C52.8447 58.5972 53.0152 58.7675 53.0152 59.1082C53.1857 59.4489 53.1857 59.6192 53.1857 59.9599C53.1857 60.3006 53.1857 60.8116 53.0152 61.1523C52.8447 61.493 52.6743 61.8337 52.5038 62.1743C52.3333 62.515 51.9924 62.6854 51.6515 62.8557C51.3105 63.1964 50.9696 63.1964 50.6287 63.1964ZM50.7991 62.515C51.1401 62.515 51.3105 62.515 51.481 62.3447C51.6515 62.1743 51.8219 62.004 51.9924 61.8337C52.1629 61.6633 52.3333 61.3226 52.3333 61.1523C52.3333 60.8116 52.5038 60.6413 52.5038 60.3006C52.5038 59.7896 52.3333 59.4489 52.1629 59.2785C51.9924 59.1082 51.8219 58.9379 51.3105 58.9379C50.9696 58.9379 50.7991 58.9379 50.6287 59.1082C50.4582 59.2785 50.2877 59.4489 50.1173 59.6192C49.9468 59.7896 49.7763 60.1303 49.7763 60.3006C49.7763 60.6413 49.6059 60.8116 49.6059 61.1523C49.6059 61.6633 49.7763 62.004 49.9468 62.1743C50.1173 62.515 50.2877 62.515 50.7991 62.515Z" fill="white"/>
<path d="M55.2313 59.4489C55.5722 59.1082 55.7427 58.5972 56.0836 58.4268C56.4246 58.2565 56.7655 58.0862 57.1064 58.0862C57.2769 58.0862 57.4474 58.0862 57.6178 58.2565C57.7883 58.4268 57.9588 58.4268 57.9588 58.5972C58.1292 58.7675 58.1292 58.9379 58.1292 59.1082C58.1292 59.2785 58.1292 59.6192 58.1292 59.9599L57.9588 63.1964H57.1064L57.4474 59.9599C57.4474 59.6192 57.4474 59.2785 57.4474 59.1082C57.4474 58.9379 57.1064 58.7675 56.936 58.7675C56.7655 58.7675 56.595 58.7675 56.4246 58.9379C56.2541 59.1082 56.0836 59.1082 55.9132 59.2785C55.7427 59.4489 55.5722 59.6192 55.5722 59.7896C55.4018 59.9599 55.2313 60.3006 55.2313 60.4709L54.8904 63.026H54.038L54.7199 57.9158H55.0608C55.2313 57.9158 55.4018 58.0862 55.4018 58.2565L55.2313 59.4489Z" fill="white"/>
<path d="M30.3431 82.7856C32.7296 83.2966 38.8665 83.1263 39.0369 79.2084C39.0369 77.6754 36.9913 76.1423 35.1162 75.6313C32.7296 75.1202 31.1954 75.1202 28.8089 75.6313C27.2747 76.1423 26.9338 74.7796 28.2975 74.2685C30.8545 73.2465 40.9121 73.0762 41.4235 79.2084C41.0825 85.1703 32.2182 84.6593 30.3431 84.3186C29.4908 84.1483 28.9794 83.8076 28.9794 82.7856V77.8457C28.9794 76.6533 30.684 76.6533 30.684 77.8457L30.3431 82.7856Z" fill="white"/>
<path d="M49.2649 75.8016C47.3898 75.8016 43.9804 81.7635 42.9576 83.978C42.4462 85.1703 40.5711 84.3186 41.0825 83.1263C42.1053 80.7415 46.026 73.9279 49.0944 73.9279C52.1628 73.9279 56.0836 80.7415 57.1064 83.1263C57.6178 84.3186 55.9131 85.3407 55.2313 83.978C54.3789 81.7635 51.14 75.8016 49.2649 75.8016Z" fill="white"/>
<path d="M62.9023 82.4449C64.7774 82.4449 68.1867 76.4829 69.2095 74.2685C69.7209 73.0761 71.5961 73.9278 71.0847 75.1202C70.0619 77.505 66.1411 84.3186 63.0727 84.3186C60.0043 84.3186 56.0836 77.505 55.0608 75.1202C54.5494 73.7575 56.2541 72.9058 56.9359 74.2685C57.6178 76.4829 60.8567 82.4449 62.9023 82.4449Z" fill="white"/>
<path d="M74.3236 74.7796V83.4669C74.3236 84.8297 72.4484 84.6593 72.4484 83.4669V74.7796C72.278 73.4168 74.3236 73.4168 74.3236 74.7796Z" fill="white"/>
<path d="M83.6992 82.4449C85.5744 82.4449 88.9837 76.4829 90.0065 74.2685C90.5179 73.0761 92.393 73.9278 91.8816 75.1202C90.8588 77.505 86.9381 84.3186 83.8697 84.3186C80.8013 84.3186 76.8805 77.505 75.8577 75.1202C75.3463 73.7575 77.051 72.9058 77.7329 74.2685C78.4147 76.4829 81.6536 82.4449 83.6992 82.4449Z" fill="white"/>
<path d="M98.7003 80.0601C99.2117 81.2525 100.916 82.2746 102.451 82.6152C104.837 83.1263 106.371 83.1263 108.758 82.6152C110.292 82.1042 110.633 83.6373 109.269 83.978C106.542 84.8297 96.6547 85.1703 96.1433 79.2084C96.4842 73.4168 104.326 73.5872 107.394 73.9279C108.928 74.0982 108.587 75.6313 107.053 75.2906C105.008 74.9499 99.5526 74.7796 98.5298 78.3567H104.155C105.008 78.3567 105.008 80.0601 104.155 80.0601H98.7003Z" fill="white"/>
<path d="M130.066 82.7856C132.453 83.2966 138.59 83.1263 138.76 79.2084C138.76 77.6754 136.714 76.1423 134.839 75.6313C132.453 75.1202 130.919 75.1202 128.532 75.6313C126.998 76.1423 126.657 74.7796 128.021 74.2685C130.578 73.2465 140.635 73.0762 141.147 79.2084C140.806 85.1703 131.941 84.6593 130.066 84.3186C129.214 84.1483 128.702 83.8076 128.702 82.7856V77.8457C128.702 76.6533 130.407 76.6533 130.407 77.8457L130.066 82.7856Z" fill="white"/>
<path d="M148.988 75.8016C147.113 75.8016 143.704 81.7635 142.681 83.978C142.169 85.1703 140.294 84.3186 140.806 83.1263C141.828 80.7415 145.749 73.9279 148.818 73.9279C151.886 73.9279 155.807 80.7415 156.83 83.1263C157.341 84.3186 155.636 85.3407 154.954 83.978C154.102 81.7635 150.863 75.8016 148.988 75.8016Z" fill="white"/>
<path d="M94.9501 74.7796V83.4669C94.9501 84.8297 93.075 84.6593 93.075 83.4669V74.7796C93.075 73.4168 94.9501 73.4168 94.9501 74.7796Z" fill="white"/>
<path d="M118.645 80.9118C117.452 78.6974 116.088 75.8016 115.236 75.6313C113.02 75.6313 114.042 80.0601 114.042 83.6373C114.042 84.8297 112.167 84.8297 112.167 83.4669C112.167 79.0381 111.144 73.7575 115.406 73.7575C116.599 73.7575 117.793 75.6313 118.815 77.3347C120.009 79.5491 121.543 82.4449 122.395 82.6152C124.611 82.6152 123.588 78.1864 123.588 74.7796C123.588 73.5872 125.464 73.5872 125.464 74.9499C125.464 79.3788 126.486 84.6593 122.225 84.6593C120.861 84.489 119.668 82.6152 118.645 80.9118Z" fill="white"/>
<path fill-rule="evenodd" clip-rule="evenodd" d="M3.40935 76.3126C3.40935 76.6533 3.40935 78.016 2.21608 79.8898C0.852346 81.9339 2.89795 85.3407 7.15962 84.489C8.01195 84.8297 9.03476 84.8297 9.71662 84.8297C10.3985 84.8297 11.4213 84.8297 12.2736 84.489C16.3648 85.3407 18.4104 81.9339 17.2172 79.8898C16.0239 78.016 16.0239 76.6533 16.0239 76.3126H3.40935Z" fill="#E1251B"/>
<path fill-rule="evenodd" clip-rule="evenodd" d="M9.54614 84.8297C5.45493 84.6593 4.77307 82.9559 5.79587 82.4449C6.47774 82.2746 7.50054 81.7635 7.50054 81.7635C7.1596 79.7194 7.84147 76.994 9.71661 76.994C11.5917 76.994 12.2736 79.7194 11.9327 81.7635C11.9327 81.7635 12.785 82.1042 13.4669 82.2745C14.3192 82.9559 13.6373 84.6593 9.54614 84.8297Z" fill="#0075C9"/>
<path fill-rule="evenodd" clip-rule="evenodd" d="M8.01197 83.2966C6.98917 80.2305 7.8415 77.505 9.54617 77.505C11.0804 77.505 12.1032 80.2305 11.0804 83.2966C11.0804 83.2966 10.569 83.1262 9.54617 83.1262C8.69384 83.2966 8.01197 83.2966 8.01197 83.2966Z" fill="#FFD100"/>
<path fill-rule="evenodd" clip-rule="evenodd" d="M9.54613 84.8297C11.2508 84.8297 12.4441 84.489 12.4441 83.978C12.4441 83.4669 11.2508 83.1263 9.54613 83.1263C7.84146 83.1263 6.64819 83.4669 6.64819 83.978C6.64819 84.489 8.01193 84.8297 9.54613 84.8297Z" fill="#F18A00"/>
<path fill-rule="evenodd" clip-rule="evenodd" d="M4.26171 77.8457H6.13684C6.47777 77.8457 6.81871 78.016 6.81871 78.3567V79.7194C6.81871 80.0601 6.47778 80.2305 6.30731 80.2305H4.26171C3.92077 80.2305 3.75031 79.8898 3.75031 79.7194V78.3567C3.75031 78.016 3.92077 77.8457 4.26171 77.8457Z" fill="#0075C9"/>
<path d="M4.43212 78.1864H5.96632C6.30726 78.1864 6.30726 78.3567 6.30726 78.527V79.5491C6.30726 79.7194 6.13679 79.8898 5.96632 79.8898H4.43212C4.26165 79.8898 4.09119 79.7194 4.09119 79.5491V78.527C4.09119 78.3567 4.26165 78.1864 4.43212 78.1864Z" fill="#2D2A26"/>
<path fill-rule="evenodd" clip-rule="evenodd" d="M6.30729 79.2084C5.62542 79.2084 5.28448 78.3567 5.28448 78.016H5.79589C6.13682 78.016 6.13682 78.1864 6.13682 78.3567L6.30729 79.2084Z" fill="#FFD100"/>
<path fill-rule="evenodd" clip-rule="evenodd" d="M5.11399 78.1864C5.11399 78.3567 4.77305 79.2084 4.09119 79.3787V78.6974C4.09119 78.527 4.26165 78.3567 4.43212 78.3567H5.11399V78.1864Z" fill="#FFD100"/>
<path fill-rule="evenodd" clip-rule="evenodd" d="M12.9555 77.8457H14.8306C15.1716 77.8457 15.342 78.1864 15.342 78.3567V79.7194C15.342 80.0601 15.0011 80.2305 14.8306 80.2305H12.9555C12.6146 80.2305 12.4441 79.8898 12.4441 79.7194V78.3567C12.4441 78.016 12.785 77.8457 12.9555 77.8457Z" fill="#0075C9"/>
<path d="M13.2964 78.1864H14.8306C15.0011 78.1864 15.1716 78.3567 15.1716 78.527V79.5491C15.1716 79.7194 15.0011 79.8898 14.8306 79.8898H13.2964C13.126 79.8898 12.9555 79.7194 12.9555 79.5491V78.527C12.785 78.3567 12.9555 78.1864 13.2964 78.1864Z" fill="#2D2A26"/>
<path fill-rule="evenodd" clip-rule="evenodd" d="M15.1715 79.2084C14.4897 79.2084 14.1487 78.3567 14.1487 78.016H14.6601C14.8306 78.016 15.0011 78.1864 15.0011 78.3567V79.2084H15.1715Z" fill="#FFD100"/>
<path fill-rule="evenodd" clip-rule="evenodd" d="M13.8078 78.1864C13.8078 78.3567 13.4669 79.2084 12.785 79.3787V78.6974C12.785 78.527 12.9555 78.3567 13.126 78.3567H13.8078V78.1864Z" fill="#FFD100"/>
<path fill-rule="evenodd" clip-rule="evenodd" d="M13.6373 71.2024C13.4669 70.521 13.2964 70.1804 13.9783 70.1804H15.342C16.1943 70.1804 15.8534 70.8617 15.6829 71.5431C15.5125 72.3948 15.5125 72.7355 15.5125 72.7355C15.5125 72.7355 13.6373 71.3727 13.6373 71.2024Z" fill="#E1251B"/>
<path fill-rule="evenodd" clip-rule="evenodd" d="M9.54613 76.3126C7.50053 76.3126 4.43212 76.483 2.72745 76.6533C1.36372 76.8236 0.170451 75.6313 1.19325 74.6092C3.23886 72.3948 8.18239 69.6693 9.54613 69.6693C11.0803 69.6693 16.0239 72.3948 17.899 74.6092C18.9218 75.6313 17.899 76.6533 16.5353 76.6533C15.0011 76.6533 11.7622 76.3126 9.54613 76.3126Z" fill="#F18A00"/>
<path d="M10.7394 81.2525C10.7394 81.0821 10.9099 80.9118 11.0804 80.9118C11.2508 80.9118 11.4213 81.0821 11.4213 81.2525C11.4213 81.4228 11.2508 81.5932 11.0804 81.5932C10.9099 81.5932 10.7394 81.4228 10.7394 81.2525Z" fill="#231F20"/>
<path fill-rule="evenodd" clip-rule="evenodd" d="M9.54616 83.1263C8.69383 83.1263 8.01196 83.2966 8.01196 83.2966C6.98916 80.4008 7.84149 77.6754 9.54616 77.6754C11.2508 77.6754 12.1032 80.4008 11.0804 83.2966C11.0804 83.2966 10.3985 83.1263 9.54616 83.1263ZM11.0804 83.2966C11.9327 83.4669 12.4441 83.6373 12.4441 83.978C12.4441 84.3186 11.2508 84.8297 9.54616 84.8297C7.84149 84.8297 6.81869 84.489 6.81869 83.978C6.81869 83.6373 7.33009 83.4669 8.18243 83.2966C8.18243 83.2966 9.03476 83.1263 9.71663 83.1263C10.228 83.2966 11.0804 83.2966 11.0804 83.2966ZM11.2508 83.2966C12.2736 80.2305 11.2508 77.505 9.54616 77.505C7.84149 77.505 6.81869 80.2305 7.84149 83.2966C6.98916 83.4669 6.47776 83.6373 6.47776 83.978C6.47776 84.1483 6.47776 84.1483 6.64822 84.3186C5.28449 83.8076 5.11402 82.7856 5.96635 82.4449C6.64822 82.2746 7.33009 81.9339 7.33009 81.9339C6.98916 79.8898 7.50056 77.1643 9.37569 77.1643C11.2508 77.1643 11.9327 79.8898 11.4213 81.9339C11.4213 81.9339 12.2736 82.2746 12.785 82.4449C13.4669 82.7856 13.4669 83.6373 12.1032 84.3186C12.2736 84.1483 12.2736 84.1483 12.2736 83.978C12.6146 83.6373 11.9327 83.4669 11.2508 83.2966ZM13.8078 71.2024C13.6374 70.6914 13.6374 70.3507 14.1488 70.3507H15.342C16.1944 70.3507 15.8534 70.8617 15.683 71.5431C15.683 71.8838 15.683 72.2245 15.5125 72.3948C15.0011 72.0541 14.3192 71.5431 13.8078 71.2024ZM12.2736 84.489C16.1944 85.1703 18.0695 81.9339 16.7058 79.8898C15.683 78.5271 15.5125 77.3347 15.5125 76.6533C12.9555 76.483 11.2508 76.3126 9.54616 76.3126C7.84149 76.3126 6.13682 76.483 3.57982 76.6533C3.57982 77.3347 3.23888 78.3567 2.38655 79.8898C1.02282 81.7635 3.06842 85.1703 6.81869 84.489C5.11402 83.8076 4.94355 82.7856 5.79589 82.4449C6.47776 82.1042 7.33009 81.7635 7.33009 81.7635C6.98916 79.7194 7.67102 76.8236 9.54616 76.8236C11.4213 76.8236 12.1032 79.5491 11.7622 81.7635C11.7622 81.7635 12.6146 82.1042 13.2964 82.2745C14.1488 82.7856 13.9783 83.8076 12.2736 84.489ZM9.54616 76.1423C7.33009 76.1423 5.28449 76.3126 2.89795 76.483C1.36375 76.6533 0.511414 75.6313 1.53422 74.6092C2.89795 73.0762 7.67102 69.8397 9.54616 69.8397C11.4213 69.8397 16.1944 72.9058 17.7286 74.6092C18.7514 75.6313 17.899 76.6533 16.3648 76.483C13.8078 76.3126 11.7622 76.1423 9.54616 76.1423ZM13.4669 71.0321V70.8617C13.2964 70.521 13.4669 70.01 14.1488 70.01H15.5125C16.3648 70.01 16.1944 70.5211 16.0239 71.2024C15.8534 71.5431 15.8534 72.0541 15.8534 72.5651C15.8534 72.5651 17.0467 73.4168 17.5581 73.9279C19.6037 75.6313 18.24 76.8237 16.3648 76.6533C16.1944 76.6533 16.0239 76.6533 15.8534 76.6533C15.8534 77.1643 16.0239 78.3567 16.8762 79.5491C19.0923 82.2746 16.1944 85.511 11.9327 84.6593C11.2508 84.8297 10.228 85 9.54616 85C8.86429 85 7.84149 84.8297 7.15962 84.6593C2.89795 85.6814 1.38879e-05 82.2746 2.21608 79.5491C3.06842 78.3567 3.23888 77.3347 3.23888 76.6533H2.72748C0.852348 76.8237 -0.511387 75.6313 1.53422 73.9279C4.60262 71.3728 8.18242 69.499 9.54616 69.499C10.3985 69.499 11.7622 70.1804 13.4669 71.0321Z" fill="#2D2A26"/>
<path d="M6.13684 80.2305H4.26171C3.92077 80.2305 3.75031 79.8898 3.75031 79.7194V78.3567C3.75031 78.016 4.09124 77.8457 4.26171 77.8457H6.13684C6.47777 77.8457 6.81871 78.1864 6.81871 78.3567V79.7194C6.81871 80.0601 6.47777 80.2305 6.13684 80.2305ZM4.26171 77.8457C3.92077 77.8457 3.75031 78.016 3.75031 78.3567V79.7194C3.75031 80.0601 4.09124 80.2305 4.26171 80.2305H6.13684C6.47777 80.2305 6.64824 79.8898 6.64824 79.7194V78.3567C6.64824 78.016 6.30731 77.8457 6.13684 77.8457H4.26171Z" fill="#2D2A26"/>
<path d="M15.0011 80.2305H13.126C12.785 80.2305 12.6146 79.8898 12.6146 79.7194V78.3567C12.6146 78.016 12.9555 77.8457 13.126 77.8457H15.0011C15.342 77.8457 15.5125 78.1864 15.5125 78.3567V79.7194C15.5125 80.0601 15.342 80.2305 15.0011 80.2305ZM12.9555 77.8457C12.6146 77.8457 12.4441 78.016 12.4441 78.3567V79.7194C12.4441 80.0601 12.6146 80.2305 12.9555 80.2305H14.8306C15.1716 80.2305 15.342 79.8898 15.342 79.7194V78.3567C15.342 78.016 15.0011 77.8457 14.8306 77.8457H12.9555Z" fill="#2D2A26"/>
</svg>

